<svg id="レイヤー_2" data-name="レイヤー 2" xmlns="http://www.w3.org/2000/svg" viewBox="0 0 100 17.44"><defs><style>.cls-1{fill:#ff5d01;}.cls-2{fill:#fff;}</style></defs><title>mago_logo</title><path class="cls-1" d="M494,166.23c-3.65,0-4.95-1.91-4.95-3.7a3.23,3.23,0,0,1,1.41-2.7.18.18,0,0,1-.07-.05,2.13,2.13,0,0,1-.78-1.67,2.06,2.06,0,0,1,.51-1.45,1.76,1.76,0,0,1-.92-1.75,2,2,0,0,1,2-2.18l1,.05,1,.05.79,0a2,2,0,0,1,2.18-2,2,2,0,0,1,2.18,1.63l.34-.06a10.35,10.35,0,0,1,1.27-.19,2,2,0,0,1,1.95,2.13,1.89,1.89,0,0,1-.78,1.69,2.21,2.21,0,0,1,.68,1.66c0,1.65-1.16,2.05-3,2.25a12.6,12.6,0,0,1,2.54,1.28,2.14,2.14,0,0,1,1,1.81,2.26,2.26,0,0,1-2.19,2.26,2.18,2.18,0,0,1-1.27-.46c-.35-.24-.58-.4-.79-.53Q497.18,166.24,494,166.23Z" transform="translate(-489 -149.22)"/><path class="cls-1" d="M508,165.69c-1.73,0-7,0-7-4.26a5,5,0,0,1,.57-2.29,2.08,2.08,0,0,1,1.91-1.13,2.09,2.09,0,0,1,2.14,3l0,.09a6.09,6.09,0,0,0,2,.23,12.66,12.66,0,0,0,3.3-.35,3.67,3.67,0,0,1,1-.18,2.12,2.12,0,0,1,2.1,2.32C514.06,165.49,511.33,165.69,508,165.69Zm-4-9a2,2,0,0,1-2-2.2,2.1,2.1,0,0,1,1.81-2.19,40.06,40.06,0,0,1,4.11-.23c1.05,0,1.78,0,2.31.07a1.82,1.82,0,0,1,1.65-1H512a1.84,1.84,0,0,1,1.53-.83c1.39,0,2.53,2.18,2.53,2.89a1.82,1.82,0,0,1-1.87,1.77h0a1.92,1.92,0,0,1-1.6.86,1.74,1.74,0,0,1-.48-.07,1.92,1.92,0,0,1-1.68.86l-.52,0a13.87,13.87,0,0,0-1.67-.09,28.94,28.94,0,0,0-3.36.16h-.11A7.42,7.42,0,0,1,504,156.67Z" transform="translate(-489 -149.22)"/><path class="cls-1" d="M524,166.14a2.32,2.32,0,0,1-2.29-2.39v-.12a3.64,3.64,0,0,1-2.94,1.44c-2.45,0-4.11-2.08-4.11-5.18,0-4.65,3.53-8,8.39-8,4.29,0,7.06,2.62,7.06,6.67a7.83,7.83,0,0,1-1.54,4.94C527.54,164.79,525.55,166.14,524,166.14Zm.61-9.78a23.6,23.6,0,0,1-1.63,5.15c-.07.16-.15.32-.23.48a4.7,4.7,0,0,1,.73-.33,2.89,2.89,0,0,0,2.11-3.06,2.72,2.72,0,0,0-.72-2A1.89,1.89,0,0,0,524.61,156.36Zm-4.65.76a4.29,4.29,0,0,0-1,2.68v.08A18.15,18.15,0,0,0,520,157.12Z" transform="translate(-489 -149.22)"/><path class="cls-1" d="M536.25,166.51c-1.27,0-3.18,0-3.18-2.16a1.92,1.92,0,0,1,1.32-2h-3.28a2.09,2.09,0,0,1-.29-4.1,2.24,2.24,0,0,1-.35-1.29,2.18,2.18,0,0,1,.5-1.48,2,2,0,0,1-.8-1.69c0-2.11,1.89-2.11,3.14-2.11a40.55,40.55,0,0,0,7.61-.69,3.52,3.52,0,0,1,1-.13,2.06,2.06,0,0,1,2,2.24,1.8,1.8,0,0,1-1.41,1.83,1.88,1.88,0,0,1,1.53,2,2.28,2.28,0,0,1-.38,1.33,2.1,2.1,0,0,1-.47,4.06h-3.59v1.09C539.52,165.58,538.55,166.51,536.25,166.51Z" transform="translate(-489 -149.22)"/><path class="cls-1" d="M557.86,166.66a6.11,6.11,0,0,1-2.74-1.08,4.5,4.5,0,0,1-1.39-1,4.64,4.64,0,0,1-.94.79,6.84,6.84,0,0,1-2.94,1.28,1.92,1.92,0,0,1-1.26-.46,2.35,2.35,0,0,1-1.4.42,1.93,1.93,0,0,1-2.11-1.91v-4.62a2.22,2.22,0,0,1-1.34-2,2.43,2.43,0,0,1,.63-1.57,16.33,16.33,0,0,0,1.7-4.14,2,2,0,0,1,2-1.72,2.36,2.36,0,0,1,1.75.71,2.92,2.92,0,0,1,1.45-.31h5.24a2.09,2.09,0,0,1,2.41,2.4v5.33a3.9,3.9,0,0,1-.11,1,1.91,1.91,0,0,1,1,1.8,2,2,0,0,1-.6,1.52,1.57,1.57,0,0,1,.57,1.27A2.15,2.15,0,0,1,557.86,166.66Z" transform="translate(-489 -149.22)"/><path class="cls-1" d="M566.48,166.5a1.93,1.93,0,0,1-2.13-1.91,8,8,0,0,1-3.76,1.55,2,2,0,0,1-2-2.24,1.67,1.67,0,0,1,1.09-1.69,1.93,1.93,0,0,1-.93-1.76,2.13,2.13,0,0,1,.4-1.29,2.36,2.36,0,0,1-.57-1.55,1.86,1.86,0,0,1,1.23-1.74,4.47,4.47,0,0,0,.8-.45l0,0a10.46,10.46,0,0,0-.86-.63,1.7,1.7,0,0,1-.82-1.47,2.21,2.21,0,0,1,2.14-2.16c.68,0,1,.27,1.83.85l.18.14a2.45,2.45,0,0,1,1.52-.45,1.72,1.72,0,0,1,1.81-1.11,2.12,2.12,0,0,1,2.07,1.11,2.27,2.27,0,0,1,1.6.6,6.27,6.27,0,0,0,.49-.53,1.76,1.76,0,0,1,1.4-.65,2.14,2.14,0,0,1,2.11,2.11,2,2,0,0,1-.56,1.35l0,0a8.8,8.8,0,0,1-.87.86,8.67,8.67,0,0,1,1,.81l0,0a1.76,1.76,0,0,1,.53,1.36,2.3,2.3,0,0,1-.52,1.46,2.12,2.12,0,0,1,.45,1.36,1.92,1.92,0,0,1-.87,1.72,1.77,1.77,0,0,1,1.15,1.76,2.06,2.06,0,0,1-2,2.2,8.1,8.1,0,0,1-3.79-1.59v0A1.93,1.93,0,0,1,566.48,166.5Z" transform="translate(-489 -149.22)"/><path class="cls-1" d="M583.06,166.47a1.94,1.94,0,0,1-1.78-.89,2.92,2.92,0,0,1-1.48.33h-3.31a2.1,2.1,0,0,1-2.4-2.41v-2.76a3.25,3.25,0,0,1,.21-1.24,2,2,0,0,1,.26-3.71,1.91,1.91,0,0,1-1-1.79,1.75,1.75,0,0,1,1.76-1.94h.93a2.26,2.26,0,0,1,4.09,0h.78l.21,0a2.26,2.26,0,0,1,2.14-1h3.26a2.07,2.07,0,0,1,2.23,2,16.9,16.9,0,0,1-1.09,4.12l.2.29a7.21,7.21,0,0,1,.93,3.55c0,2.3-1.14,3.46-3.4,3.46a4,4,0,0,1-.5,0v.09A1.84,1.84,0,0,1,583.06,166.47Z" transform="translate(-489 -149.22)"/><path class="cls-2" d="M494,165.19c-3.65,0-4.95-1.91-4.95-3.7a3.23,3.23,0,0,1,1.41-2.7.18.18,0,0,1-.07,0,2.13,2.13,0,0,1-.78-1.67,2.06,2.06,0,0,1,.51-1.45,1.76,1.76,0,0,1-.92-1.75,2,2,0,0,1,2-2.19l1,.06,1,0,.79,0a2,2,0,0,1,2.18-2,2,2,0,0,1,2.18,1.63l.34-.06a10.35,10.35,0,0,1,1.27-.19,2,2,0,0,1,1.95,2.13,1.91,1.91,0,0,1-.78,1.69,2.21,2.21,0,0,1,.68,1.66c0,1.65-1.16,2-3,2.25a12.1,12.1,0,0,1,2.54,1.28,2.12,2.12,0,0,1,1,1.81,2.26,2.26,0,0,1-2.19,2.26,2.12,2.12,0,0,1-1.27-.47l-.79-.53C497.48,164.55,496.1,165.19,494,165.19Z" transform="translate(-489 -149.22)"/><path class="cls-1" d="M497.27,155.91a19.3,19.3,0,0,0,1.94-.29,3.54,3.54,0,0,1,.6-.08c.56,0,.93.45.93,1.11,0,.95-.52,1.11-3.45,1.33,0,.69,0,1.09,0,1.53a13.63,13.63,0,0,1,3.38,1.53,1.1,1.1,0,0,1,.57,1,1.2,1.2,0,0,1-1.14,1.22,1.17,1.17,0,0,1-.68-.28,12,12,0,0,0-2.07-1.23s0,.26-.06.47c-.22,1.3-1.24,2-3.39,2-2.47,0-3.9-1-3.9-2.66s1.33-2.49,3.61-2.49c.29,0,.66,0,1.5.07,0-.27,0-.6,0-1-.09,0-1.84.07-2.47.07-1.1,0-1.4,0-1.67-.25a1.06,1.06,0,0,1-.39-.85c0-.7.36-1,1.08-1l2.35.06c.36,0,.71,0,1.07-.05,0-.32,0-.74,0-1.17-.58,0-1.32.06-2.29.06-1.91,0-2.6,0-2.6-1.06,0-.73.35-1.14,1-1.14.28,0,1.68.1,2,.1l1.85,0c0-.25,0-.49,0-.78,0-.87.31-1.19,1.15-1.19,1.16,0,1.16.63,1.16,1,0,.13,0,.72,0,.84l2.64-.43a1,1,0,0,1,.91,1.09c0,.91-.4,1.11-2.69,1.32l-.88.09Zm-3.64,4.88c-1,0-1.44.23-1.44.7s.54.71,1.51.71c1.13,0,1.49-.24,1.46-1.25A7.26,7.26,0,0,0,493.63,160.79Z" transform="translate(-489 -149.22)"/><path class="cls-2" d="M508,164.65c-1.73,0-7,0-7-4.26a5,5,0,0,1,.57-2.29,2.08,2.08,0,0,1,1.91-1.13,2.09,2.09,0,0,1,2.14,3l0,.09a6.09,6.09,0,0,0,2,.23,13.11,13.11,0,0,0,3.3-.35,3.67,3.67,0,0,1,1-.18,2.12,2.12,0,0,1,2.1,2.31C514.06,164.45,511.33,164.65,508,164.65Zm-4-9a2,2,0,0,1-2-2.2,2.1,2.1,0,0,1,1.81-2.19,40.06,40.06,0,0,1,4.11-.23c1.05,0,1.78,0,2.31.06a1.81,1.81,0,0,1,1.65-1H512a1.84,1.84,0,0,1,1.53-.83c1.39,0,2.53,2.18,2.53,2.89a1.82,1.82,0,0,1-1.87,1.77h0a1.92,1.92,0,0,1-1.6.86,1.74,1.74,0,0,1-.48-.07,1.92,1.92,0,0,1-1.68.86l-.52,0a15.88,15.88,0,0,0-1.67-.08,28.94,28.94,0,0,0-3.36.16h-.11C504.49,155.6,504.23,155.63,504,155.63Z" transform="translate(-489 -149.22)"/><path class="cls-1" d="M504.84,159a1.22,1.22,0,0,1-.12.53,1.9,1.9,0,0,0-.19.7c0,.71,1.05,1.08,3.08,1.08a13.61,13.61,0,0,0,3.57-.39,2.88,2.88,0,0,1,.78-.14c.64,0,1.05.5,1.05,1.27,0,.93-.52,1.55-5,1.55-2.38,0-6-.21-6-3.22a4,4,0,0,1,.44-1.78,1,1,0,0,1,1-.6C504.26,158,504.84,158.45,504.84,159Zm-.86-6.74c.74-.1,2.71-.22,3.94-.22,2.79,0,2.94.15,3.16.35a1.28,1.28,0,0,1,.35,1c0,.73-.35,1.13-1,1.13l-.43,0a15.05,15.05,0,0,0-1.76-.09,29.84,29.84,0,0,0-3.48.16c-.29,0-.56.06-.76.06-.6,0-1-.43-1-1.16A1.05,1.05,0,0,1,504,152.27Zm8.68-.59c.55.71.75,1.07.75,1.32a.8.8,0,0,1-.82.69.48.48,0,0,1-.44-.25c-.28-.44-.57-.83-.88-1.24a.61.61,0,0,1-.16-.4.76.76,0,0,1,.77-.72C512.16,151.08,512.3,151.18,512.66,151.68Zm.91-1.42c.62,0,1.49,1.51,1.49,1.85a.8.8,0,0,1-.83.73c-.25,0-.32-.07-.57-.47a6.18,6.18,0,0,0-.44-.64c-.4-.52-.43-.56-.43-.75A.79.79,0,0,1,513.57,150.26Z" transform="translate(-489 -149.22)"/><path class="cls-2" d="M524,165.1a2.32,2.32,0,0,1-2.29-2.39v-.12a3.64,3.64,0,0,1-2.94,1.44c-2.45,0-4.11-2.08-4.11-5.18,0-4.65,3.53-8,8.39-8,4.29,0,7.06,2.62,7.06,6.67a7.85,7.85,0,0,1-1.54,4.94C527.54,163.75,525.55,165.1,524,165.1Zm.61-9.78a23.6,23.6,0,0,1-1.63,5.15c-.07.16-.15.32-.23.48a4.7,4.7,0,0,1,.73-.33,2.89,2.89,0,0,0,2.11-3.06,2.76,2.76,0,0,0-.72-2A2.68,2.68,0,0,0,524.61,155.32Zm-4.65.75a4.32,4.32,0,0,0-1,2.69v.08A18,18,0,0,0,520,156.07Z" transform="translate(-489 -149.22)"/><path class="cls-1" d="M522,160c-1,2.14-1.88,3-3.26,3-1.86,0-3.07-1.63-3.07-4.14,0-4.07,3.06-7,7.35-7,3.73,0,6,2.13,6,5.63a6.8,6.8,0,0,1-1.32,4.3,6,6,0,0,1-3.75,2.26,1.29,1.29,0,0,1-1.25-1.35c0-.67.36-.82,1.12-1.13a3.9,3.9,0,0,0,2.76-4,3.74,3.74,0,0,0-1-2.75,2.71,2.71,0,0,0-1.8-.81A24.21,24.21,0,0,1,522,160Zm-4.14-1.28c0,1,.38,1.73.9,1.73.86,0,2-3,2.77-6.43A4.73,4.73,0,0,0,517.89,158.76Z" transform="translate(-489 -149.22)"/><path class="cls-2" d="M536.25,165.47c-1.27,0-3.18,0-3.18-2.16a1.92,1.92,0,0,1,1.32-2h-3.28a2.09,2.09,0,0,1-.29-4.1,2.24,2.24,0,0,1-.35-1.29,2.14,2.14,0,0,1,.5-1.48,2,2,0,0,1-.8-1.69c0-2.11,1.89-2.11,3.14-2.11a40.55,40.55,0,0,0,7.61-.69,3.52,3.52,0,0,1,1-.13,2.06,2.06,0,0,1,2,2.24,1.8,1.8,0,0,1-1.41,1.83,1.87,1.87,0,0,1,1.53,2,2.22,2.22,0,0,1-.38,1.32,1.89,1.89,0,0,1,1.39,2,1.86,1.86,0,0,1-1.86,2.07h-3.59v1.09C539.52,164.54,538.55,165.47,536.25,165.47Z" transform="translate(-489 -149.22)"/><path class="cls-1" d="M536.25,153.58c-1.85.13-3.73.16-3.91.16-.76,0-1.13-.34-1.13-1,0-1.07.74-1.07,2.1-1.07a41.21,41.21,0,0,0,7.85-.72,2.94,2.94,0,0,1,.72-.1c.52,0,.92.51.92,1.2,0,.49-.22.73-.88.9a31.29,31.29,0,0,1-3.44.5v1.45h3.63c.53,0,.81.37.81,1s-.28,1-.81,1h-3.63v1.29h4.63c.53,0,.82.37.82,1s-.29,1-.82,1h-4.63v2.13c0,1.6-.5,2.07-2.23,2.07s-2.14-.18-2.14-1.12c0-.75.31-1.1,1-1.1.17,0,.5,0,.67,0,.37,0,.5-.18.5-.64v-1.39h-5.14c-.51,0-.81-.37-.81-1s.3-1,.81-1h5.14V156.9h-3.93c-.53,0-.81-.36-.81-1s.28-1,.81-1h3.93Z" transform="translate(-489 -149.22)"/><path class="cls-2" d="M557.86,165.62c-.69,0-1.3-.3-2.74-1.09a4.32,4.32,0,0,1-1.39-1,4.64,4.64,0,0,1-.94.79,6.84,6.84,0,0,1-2.94,1.28,1.92,1.92,0,0,1-1.26-.46,2.35,2.35,0,0,1-1.4.42,1.93,1.93,0,0,1-2.11-1.91V159a2.22,2.22,0,0,1-1.34-2,2.43,2.43,0,0,1,.63-1.57,16.33,16.33,0,0,0,1.7-4.14,2,2,0,0,1,2-1.72,2.36,2.36,0,0,1,1.75.71,2.92,2.92,0,0,1,1.45-.31h5.24a2.09,2.09,0,0,1,2.41,2.4v5.33a4,4,0,0,1-.11,1,1.9,1.9,0,0,1,1,1.8,2,2,0,0,1-.6,1.52,1.57,1.57,0,0,1,.57,1.27A2.15,2.15,0,0,1,557.86,165.62Z" transform="translate(-489 -149.22)"/><path class="cls-1" d="M546.12,158.22a1.28,1.28,0,0,1-1.33-1.19c0-.31.07-.47.42-1a17.56,17.56,0,0,0,1.87-4.49c.17-.7.44-.94,1-.94s1.2.4,1.2.94a14.87,14.87,0,0,1-1,3.45v8.62c0,.54-.4.87-1.09.87s-1.07-.33-1.07-.87Zm9.66,3.2a.47.47,0,0,1,.17.07,19.12,19.12,0,0,0,2,1c.64.23.82.38.82.77,0,.72-.41,1.3-.92,1.3s-.84-.19-2.24-1c-1-.56-1.22-.76-1.22-1.19a1.2,1.2,0,0,1,.62-1h-2.44a1.08,1.08,0,0,1,.55.94c0,.37-.21.6-.93,1.1a6,6,0,0,1-2.35,1.1,1.06,1.06,0,0,1-1-1.1c0-.43.16-.6.84-.93a17,17,0,0,0,1.91-1.11h-2.1c-.47,0-.73-.34-.73-.93s.26-.92.73-.92h8.56c.47,0,.75.34.75.92s-.28.93-.75.93Zm-5.85-9c0-1.07.29-1.36,1.36-1.36h5.24c1.08,0,1.37.29,1.37,1.36v5.33c0,1.07-.29,1.37-1.37,1.37h-5.24c-1.07,0-1.36-.3-1.36-1.37Zm5.9,1c0-.58,0-.64-.32-.64h-3.24c-.32,0-.32.06-.32.64Zm0,1.38H552v.63h3.88Zm-.32,2.68c.32,0,.32,0,.32-.64H552c0,.59,0,.64.32.64Z" transform="translate(-489 -149.22)"/><path class="cls-2" d="M566.48,165.46a1.93,1.93,0,0,1-2.13-1.91,8,8,0,0,1-3.76,1.55,2,2,0,0,1-2-2.24,1.67,1.67,0,0,1,1.09-1.69,1.93,1.93,0,0,1-.93-1.76,2.13,2.13,0,0,1,.4-1.29,2.38,2.38,0,0,1-.57-1.55,1.86,1.86,0,0,1,1.23-1.74,4.47,4.47,0,0,0,.8-.45l0,0a10.46,10.46,0,0,0-.86-.63,1.7,1.7,0,0,1-.82-1.47,2.21,2.21,0,0,1,2.14-2.16c.68,0,1,.27,1.83.85l.18.13a2.59,2.59,0,0,1,1.52-.45,1.73,1.73,0,0,1,1.81-1.1,2.12,2.12,0,0,1,2.07,1.11,2.27,2.27,0,0,1,1.6.6,5.17,5.17,0,0,0,.49-.54A1.79,1.79,0,0,1,572,150a2.14,2.14,0,0,1,2.11,2.11,2,2,0,0,1-.56,1.35l0,0a7.69,7.69,0,0,1-.87.87,10.86,10.86,0,0,1,1,.8l0,0a1.76,1.76,0,0,1,.53,1.36,2.3,2.3,0,0,1-.52,1.46,2.12,2.12,0,0,1,.45,1.36,1.94,1.94,0,0,1-.87,1.72,1.77,1.77,0,0,1,1.15,1.76,2.06,2.06,0,0,1-2,2.2,8.1,8.1,0,0,1-3.79-1.59v0A1.93,1.93,0,0,1,566.48,165.46Z" transform="translate(-489 -149.22)"/><path class="cls-1" d="M563.23,155.82c0,.72-2,1.94-2.66,1.93a1.12,1.12,0,0,1-.92-1.18c0-.38.16-.57.65-.8a5.39,5.39,0,0,0,1.1-.67c.39-.32.53-.38.79-.38A1.14,1.14,0,0,1,563.23,155.82Zm2.16,2.12h-.66c-1.06,0-1.37-.31-1.37-1.37V153c0-1.07.31-1.38,1.37-1.38h.63c.22-.94.37-1.1,1-1.1s1.13.27,1.13.62a1.29,1.29,0,0,1-.1.48h.79c1.08,0,1.39.31,1.39,1.38v3.54c0,1.06-.31,1.37-1.39,1.37h-.64v.54h4.77c.47,0,.74.34.74.93s-.27.92-.74.92h-2.92a11.36,11.36,0,0,0,3.29,1.71.77.77,0,0,1,.64.85,1,1,0,0,1-1,1.16,9.06,9.06,0,0,1-4.83-2.78v2.26c0,.58-.4.88-1.1.88s-1.09-.32-1.09-.88v-2.2c-1.17,1.31-3.7,2.73-4.8,2.73-.54,0-.93-.48-.93-1.2,0-.47.15-.66.64-.8a9.23,9.23,0,0,0,3.31-1.73h-3.05c-.47,0-.73-.34-.73-.92s.26-.93.73-.93h4.83Zm-3.11-6.17c.75.56,1,.82,1,1.25a1.1,1.1,0,0,1-1,1.09c-.27,0-.42-.09-.89-.53a8.61,8.61,0,0,0-1-.72c-.29-.21-.38-.35-.38-.62a1.16,1.16,0,0,1,1.1-1.12C561.37,151.12,561.5,151.2,562.28,151.77Zm3.05,2.32h2.29v-.54c0-.19-.06-.25-.25-.25h-1.79c-.19,0-.25.06-.25.25Zm2.29,1.43h-2.29v.54c0,.19.06.25.25.25h1.79c.19,0,.25-.06.25-.25Zm5.41-3.37c0,.25-.06.36-.34.71-.44.51-1.38,1.38-1.94,1.38a1.2,1.2,0,0,1-1-1.16c0-.22.07-.34.32-.53a5.85,5.85,0,0,0,1.31-1.21.73.73,0,0,1,.59-.26A1.1,1.1,0,0,1,573,152.15Zm-.81,5.57c-.28,0-.34,0-1.19-.66a4.23,4.23,0,0,0-.62-.37c-.53-.28-.66-.44-.66-.84a1.13,1.13,0,0,1,1-1.14,5.32,5.32,0,0,1,2.14,1.23.75.75,0,0,1,.25.65A1.06,1.06,0,0,1,572.22,157.72Z" transform="translate(-489 -149.22)"/><path class="cls-2" d="M583.06,165.43a1.94,1.94,0,0,1-1.78-.89,2.92,2.92,0,0,1-1.48.33h-3.31a2.1,2.1,0,0,1-2.4-2.41V159.7a3.25,3.25,0,0,1,.21-1.24,2,2,0,0,1,.26-3.71,1.92,1.92,0,0,1-1-1.79,1.75,1.75,0,0,1,1.76-1.94h.93a2.26,2.26,0,0,1,4.09,0h.78l.21,0a2.26,2.26,0,0,1,2.14-1h3.26a2.07,2.07,0,0,1,2.23,2,16.9,16.9,0,0,1-1.09,4.12l.2.29a7.21,7.21,0,0,1,.93,3.55c0,2.3-1.14,3.46-3.4,3.46a4,4,0,0,1-.5,0v.09A1.84,1.84,0,0,1,583.06,165.43Z" transform="translate(-489 -149.22)"/><path class="cls-1" d="M577.17,152.06c0-.7,0-1.3,1.13-1.3s1.12.6,1.12,1.3h1.7c.47,0,.72.33.72.92s-.21.83-.63.89a1.39,1.39,0,0,0-.06.28,10.76,10.76,0,0,1-.41,1.59c.65,0,1.13,0,1.13.91,0,.58-.26.91-.73.91H575c-.47,0-.74-.33-.74-.91s.27-.91.74-.91h.88c-.06-.43-.27-1.25-.44-1.87-.3,0-.84,0-.84-.91,0-.57.25-.9.72-.9Zm-2,7.64c0-1.06.31-1.36,1.36-1.36h3.31c1.07,0,1.36.3,1.36,1.36v2.76c0,1.06-.29,1.37-1.36,1.37h-3.31c-1,0-1.36-.31-1.36-1.37Zm2.33.44c-.25,0-.3.06-.3.31v1.23c0,.25.05.31.3.31h1.4c.25,0,.31-.06.31-.31v-1.23c0-.25-.06-.31-.31-.31Zm0-6.27c.15.51.28,1.21.4,1.87h.76a11.65,11.65,0,0,0,.54-1.87Zm4.58-1.42c0-1,.32-1.34,1.41-1.34h3.26c.72,0,1.19.4,1.19,1a20.2,20.2,0,0,1-1.09,3.93.83.83,0,0,0-.07.33c0,.07,0,.1.43.7a6.26,6.26,0,0,1,.77,3c0,2.35-1.45,2.42-2.36,2.42s-1.34-.37-1.34-1.16c0-.57.28-1,.68-1,.13,0,.34,0,.53,0s.38-.15.38-.51a4.38,4.38,0,0,0-.9-2.69c-.39-.47-.47-.59-.47-.78a.72.72,0,0,1,.06-.29,17.34,17.34,0,0,0,.94-3c0-.1,0-.12-.26-.12h-.85c-.3,0-.31.05-.31.34v10.22c0,.52-.35.8-1,.8s-1-.28-1-.8Z" transform="translate(-489 -149.22)"/></svg>